<mxfile host="app.diagrams.net" modified="2023-09-07T19:56:06.381Z" agent="Mozilla/5.0 (X11; Linux x86_64) AppleWebKit/537.36 (KHTML, like Gecko) Chrome/116.0.0.0 Safari/537.36" etag="6XQaynFUBMSniwTxXMGx" version="21.7.2" type="device">
  <diagram name="PÃ¡gina-1" id="QzsvXMneYWr0tKY5w3sO">
    <mxGraphModel dx="1434" dy="798" grid="1" gridSize="10" guides="1" tooltips="1" connect="1" arrows="1" fold="1" page="1" pageScale="1" pageWidth="827" pageHeight="1169" math="0" shadow="0">
      <root>
        <mxCell id="0" />
        <mxCell id="1" parent="0" />
        <mxCell id="qT3UxwvuSXqBp1ydsfv_-1" value="AWS Account" style="points=[[0,0],[0.25,0],[0.5,0],[0.75,0],[1,0],[1,0.25],[1,0.5],[1,0.75],[1,1],[0.75,1],[0.5,1],[0.25,1],[0,1],[0,0.75],[0,0.5],[0,0.25]];outlineConnect=0;gradientColor=none;html=1;whiteSpace=wrap;fontSize=12;fontStyle=0;container=1;pointerEvents=0;collapsible=0;recursiveResize=0;shape=mxgraph.aws4.group;grIcon=mxgraph.aws4.group_account;strokeColor=#CD2264;fillColor=none;verticalAlign=top;align=left;spacingLeft=30;fontColor=#CD2264;dashed=0;" vertex="1" parent="1">
          <mxGeometry x="120" y="120" width="600" height="560" as="geometry" />
        </mxCell>
        <mxCell id="qT3UxwvuSXqBp1ydsfv_-7" style="edgeStyle=orthogonalEdgeStyle;rounded=0;orthogonalLoop=1;jettySize=auto;html=1;" edge="1" parent="qT3UxwvuSXqBp1ydsfv_-1" source="qT3UxwvuSXqBp1ydsfv_-2" target="qT3UxwvuSXqBp1ydsfv_-3">
          <mxGeometry relative="1" as="geometry">
            <Array as="points">
              <mxPoint x="296" y="170" />
              <mxPoint x="475" y="170" />
            </Array>
          </mxGeometry>
        </mxCell>
        <mxCell id="qT3UxwvuSXqBp1ydsfv_-6" style="edgeStyle=orthogonalEdgeStyle;rounded=0;orthogonalLoop=1;jettySize=auto;html=1;entryX=0.5;entryY=0;entryDx=0;entryDy=0;" edge="1" parent="qT3UxwvuSXqBp1ydsfv_-1" source="qT3UxwvuSXqBp1ydsfv_-2" target="qT3UxwvuSXqBp1ydsfv_-4">
          <mxGeometry relative="1" as="geometry">
            <Array as="points">
              <mxPoint x="296" y="170" />
              <mxPoint x="125" y="170" />
            </Array>
          </mxGeometry>
        </mxCell>
        <mxCell id="qT3UxwvuSXqBp1ydsfv_-3" value="Private subnet&lt;br&gt;10.128.1.0/24" style="points=[[0,0],[0.25,0],[0.5,0],[0.75,0],[1,0],[1,0.25],[1,0.5],[1,0.75],[1,1],[0.75,1],[0.5,1],[0.25,1],[0,1],[0,0.75],[0,0.5],[0,0.25]];outlineConnect=0;gradientColor=none;html=1;whiteSpace=wrap;fontSize=12;fontStyle=0;container=1;pointerEvents=0;collapsible=0;recursiveResize=0;shape=mxgraph.aws4.group;grIcon=mxgraph.aws4.group_security_group;grStroke=0;strokeColor=#147EBA;fillColor=#E6F2F8;verticalAlign=top;align=left;spacingLeft=30;fontColor=#147EBA;dashed=0;" vertex="1" parent="qT3UxwvuSXqBp1ydsfv_-1">
          <mxGeometry x="410" y="240" width="130" height="130" as="geometry" />
        </mxCell>
        <mxCell id="qT3UxwvuSXqBp1ydsfv_-9" style="edgeStyle=orthogonalEdgeStyle;rounded=0;orthogonalLoop=1;jettySize=auto;html=1;entryX=0.5;entryY=0;entryDx=0;entryDy=0;entryPerimeter=0;" edge="1" parent="qT3UxwvuSXqBp1ydsfv_-1" source="qT3UxwvuSXqBp1ydsfv_-4" target="qT3UxwvuSXqBp1ydsfv_-5">
          <mxGeometry relative="1" as="geometry" />
        </mxCell>
        <mxCell id="qT3UxwvuSXqBp1ydsfv_-4" value="Public subnet&lt;br&gt;10.128.0.0/24" style="points=[[0,0],[0.25,0],[0.5,0],[0.75,0],[1,0],[1,0.25],[1,0.5],[1,0.75],[1,1],[0.75,1],[0.5,1],[0.25,1],[0,1],[0,0.75],[0,0.5],[0,0.25]];outlineConnect=0;gradientColor=none;html=1;whiteSpace=wrap;fontSize=12;fontStyle=0;container=1;pointerEvents=0;collapsible=0;recursiveResize=0;shape=mxgraph.aws4.group;grIcon=mxgraph.aws4.group_security_group;grStroke=0;strokeColor=#248814;fillColor=#E9F3E6;verticalAlign=top;align=left;spacingLeft=30;fontColor=#248814;dashed=0;" vertex="1" parent="qT3UxwvuSXqBp1ydsfv_-1">
          <mxGeometry x="60" y="240" width="130" height="130" as="geometry" />
        </mxCell>
        <mxCell id="qT3UxwvuSXqBp1ydsfv_-5" value="INTERNET&lt;br&gt;GATEWAY" style="outlineConnect=0;dashed=0;verticalLabelPosition=bottom;verticalAlign=top;align=center;html=1;shape=mxgraph.aws3.internet_gateway;fillColor=#F58534;gradientColor=none;" vertex="1" parent="qT3UxwvuSXqBp1ydsfv_-1">
          <mxGeometry x="90.5" y="429" width="69" height="72" as="geometry" />
        </mxCell>
        <mxCell id="qT3UxwvuSXqBp1ydsfv_-2" value="VPC&lt;br&gt;10.128.0.0/23" style="sketch=0;points=[[0,0,0],[0.25,0,0],[0.5,0,0],[0.75,0,0],[1,0,0],[0,1,0],[0.25,1,0],[0.5,1,0],[0.75,1,0],[1,1,0],[0,0.25,0],[0,0.5,0],[0,0.75,0],[1,0.25,0],[1,0.5,0],[1,0.75,0]];outlineConnect=0;fontColor=#232F3E;gradientColor=#945DF2;gradientDirection=north;fillColor=#5A30B5;strokeColor=#ffffff;dashed=0;verticalLabelPosition=top;verticalAlign=bottom;align=center;html=1;fontSize=12;fontStyle=0;aspect=fixed;shape=mxgraph.aws4.resourceIcon;resIcon=mxgraph.aws4.vpc;horizontal=1;labelPosition=center;" vertex="1" parent="qT3UxwvuSXqBp1ydsfv_-1">
          <mxGeometry x="261" y="60" width="70" height="70" as="geometry" />
        </mxCell>
      </root>
    </mxGraphModel>
  </diagram>
</mxfile>
